<svg width="800" height="506" viewBox="0 0 800 506" fill="none" xmlns="http://www.w3.org/2000/svg">
  <g id="Final bowtie" clip-path="url(#clip0_22_11)">
    <rect width="800" height="506" fill="white" />
    <path id="segment-6" d="M787.185 77L684.852 110.921C677.241 159.072 673.435 207.44 673.435 256.025C673.435 304.01 677.147 351.475 684.572 398.42L787.185 434C794.986 394.555 798.926 335.724 799.005 257.508V255.131C799.005 175.729 795.065 116.352 787.185 77Z" fill="#837C67" />
    <path id="segment-5" d="M672.806 116.106L571.181 149.792C567.02 185.478 564.939 221.282 564.939 257.205C564.939 291.777 566.866 326.079 570.72 360.11L672.471 395.392C665.073 351.17 661.374 305.108 661.374 257.205C661.374 210.302 665.075 163.942 672.477 118.127L672.806 116.106Z" fill="#837C67" />
    <path id="segment-4" d="M558.596 154.581L434.389 195.753C456.046 207.496 470.751 230.422 470.751 256.781C470.751 281.315 458.012 302.875 438.785 315.211L558.023 356.556C554.342 324.599 552.502 291.726 552.502 257.936C552.502 223.186 554.533 188.734 558.596 154.581Z" fill="#837C67" />
    <path id="segment-middle" d="M400.316 312.92C432.028 312.92 457.737 287.212 457.737 255.5C457.737 223.788 432.028 198.079 400.316 198.079C368.604 198.079 342.896 223.788 342.896 255.5C342.896 287.212 368.604 312.92 400.316 312.92Z" fill="#E8C04E" />
    <path id="segment-3" d="M241.305 154.581L365.512 195.753C343.855 207.496 329.15 230.422 329.15 256.781C329.15 281.315 341.889 302.875 361.116 315.211L241.878 356.556C245.559 324.599 247.4 291.726 247.4 257.936C247.4 223.186 245.368 188.734 241.305 154.581Z" fill="#837C67" />
    <path id="segment-2" d="M127.095 116.106L228.72 149.792C232.881 185.478 234.962 221.282 234.962 257.205C234.962 291.777 233.035 326.079 229.181 360.11L127.43 395.392C134.828 351.17 138.527 305.108 138.527 257.205C138.527 210.302 134.826 163.942 127.424 118.127L127.095 116.106Z" fill="#837C67" />
    <path id="segment-1" d="M12.7159 77L115.049 110.921C122.66 159.072 126.466 207.44 126.466 256.025C126.466 304.01 122.754 351.475 115.329 398.42L12.7159 434C4.91476 394.555 0.975189 335.724 0.895996 257.508V255.131C0.895996 175.729 4.83596 116.352 12.7159 77Z" fill="#837C67" />
    <text id="segment-6-title" transform="matrix(0 1 -1 0 748 219)" fill="#333333" xml:space="preserve" style="white-space: pre" font-family="Arial" font-size="20" font-style="italic" font-weight="bold" letter-spacing="0em">
      <tspan x="0.480469" y="18.4336">Growth</tspan>
    </text>
    <text id="segment-5-title" transform="matrix(0 1 -1 0 627 222)" fill="#333333" xml:space="preserve" style="white-space: pre" font-family="Arial" font-size="20" font-style="italic" font-weight="bold" letter-spacing="0em">
      <tspan x="0.244141" y="18.4336">Impact</tspan>
    </text>
    <text id="segment-4-title" transform="matrix(0 1 -1 0 514 202)" fill="#333333" xml:space="preserve" style="white-space: pre" font-family="Arial" font-size="20" font-style="italic" font-weight="bold" letter-spacing="0em">
      <tspan x="0.291016" y="18.4336">Onboarding</tspan>
    </text>
    <text id="label-segment-middle" fill="#333333" xml:space="preserve" style="white-space: pre" font-family="Arial" font-size="20" font-style="italic" font-weight="bold" letter-spacing="0em">
      <tspan x="381.248" y="265.434">Win</tspan>
    </text>
    <text id="segment-1-title" transform="matrix(0 -1 1 0 281 299)" fill="#333333" xml:space="preserve" style="white-space: pre" font-family="Arial" font-size="20" font-style="italic" font-weight="bold" letter-spacing="0em">
      <tspan x="0.0078125" y="18.4336">Selection</tspan>
    </text>
    <text id="segment-2-title" transform="matrix(0 -1 1 0 173 303)" fill="#333333" xml:space="preserve" style="white-space: pre" font-family="Arial" font-size="20" font-style="italic" font-weight="bold" letter-spacing="0em">
      <tspan x="0.130859" y="18.4336">Education</tspan>
    </text>
    <text id="segment-1-title_2" transform="matrix(0 -1 1 0 47.9999 308)" fill="#333333" xml:space="preserve" style="white-space: pre" font-family="Arial" font-size="20" font-style="italic" font-weight="bold" letter-spacing="0em">
      <tspan x="0.148438" y="18.4336">Awareness</tspan>
    </text>
    <g id="aquire-and-expand">
      <text id="Expand" fill="black" xml:space="preserve" style="white-space: pre" font-family="Arial" font-size="20" font-style="italic" font-weight="bold" letter-spacing="0em">
        <tspan x="577.857" y="23.4336">Expand</tspan>
      </text>
      <text id="Acquire" fill="black" xml:space="preserve" style="white-space: pre" font-family="Arial" font-size="20" font-style="italic" font-weight="bold" letter-spacing="0em">
        <tspan x="149.734" y="18.4336">Acquire</tspan>
      </text>
      <path id="Line 4" d="M360 60V35H13V60" stroke="#858484" stroke-linecap="square" stroke-dasharray="6 6" />
      <path id="Line 5" d="M787 60V35H440V60" stroke="#858484" stroke-linecap="square" stroke-dasharray="6 6" />
    </g>
    <g id="target-and-upsell">
      <text id="Upsell and Cross Sell" fill="black" xml:space="preserve" style="white-space: pre" font-family="Arial" font-size="20" font-style="italic" font-weight="bold" letter-spacing="0em">
        <tspan x="511.646" y="496.434">Upsell and Cross Sell</tspan>
      </text>
      <text id="Target New Customers" fill="black" xml:space="preserve" style="white-space: pre" font-family="Arial" font-size="20" font-style="italic" font-weight="bold" letter-spacing="0em">
        <tspan x="78.3672" y="501.434">Target New Customers</tspan>
      </text>
      <path id="Line 3" d="M360 446V471H13V446" stroke="#858484" stroke-linecap="square" stroke-dasharray="6 6" />
      <path id="Line 2" d="M787 446V471H440V446" stroke="#858484" stroke-linecap="square" stroke-dasharray="6 6" />
    </g>
  </g>
  <defs>
    <clipPath id="clip0_22_11">
      <rect width="800" height="506" fill="white" />
    </clipPath>
  </defs>
</svg>