
<svg width="800" height="200" viewBox="0 0 800 200" 
  xmlns="http://www.w3.org/2000/svg" >
    <path 
      d="M1084.57181,0 L1246.7492,53.7791285 C1258.81188,130.119089 1264.84322,206.803346 1264.84322,283.831899 C1264.84322,359.909677 1258.95985,435.162256 1247.19312,509.589638 L1084.57181,566 C1072.20857,503.46279 1065.96514,410.190439 1065.83963,286.182947 L1065.83963,282.415737 C1065.83963,156.52846 1072.08369,62.389881 1084.57181,0 Z"
      id="6" fill="#837C67"
      transform="translate(1165.3414, 283) scale(-1, 1) translate(-1165.3414, -283)"></path>
    <path
      d="M893.895897,62 L1054.95145,115.407215 C1061.54596,171.984391 1064.84322,228.74979 1064.84322,285.703411 C1064.84322,340.514696 1061.78935,394.897647 1055.68162,448.852264 L894.426768,504.789178 C906.15107,434.679294 912.01322,361.650705 912.01322,285.703411 C912.01322,211.341368 906.147891,137.841577 894.417231,65.2040379 L893.895897,62 Z"
      id="5" fill="#837C67"
      transform="translate(979.3696, 283.3946) scale(-1, 1) translate(-979.3696, -283.3946)"></path>
    <path
      d="M687,123 L883.84322,188.275346 C849.521486,206.893132 826.217364,243.240399 826.217364,285.030636 C826.217364,323.927581 846.40633,358.10914 876.877071,377.668122 L687.908795,443.217888 C693.742115,392.551612 696.658775,340.433161 696.658775,286.862535 C696.658775,231.768383 693.439183,177.147538 687,123 Z"
      id="4" fill="#837C67"
      transform="translate(785.4216, 283.1089) scale(-1, 1) translate(-785.4216, -283.1089)"></path>
    <circle id="win" fill="#E8C04E" cx="633" cy="283" r="91"></circle>
    <path
      d="M381,123 L577.84322,188.275346 C543.521486,206.893132 520.217364,243.240399 520.217364,285.030636 C520.217364,323.927581 540.40633,358.10914 570.877071,377.668122 L381.908795,443.217888 C387.742115,392.551612 390.658775,340.433161 390.658775,286.862535 C390.658775,231.768383 387.439183,177.147538 381,123 Z"
      id="3" fill="#837C67"></path>
    <path
      d="M200,62 L361.05555,115.407215 C367.650066,171.984391 370.947324,228.74979 370.947324,285.703411 C370.947324,340.514696 367.893456,394.897647 361.785721,448.852264 L200.530871,504.789178 C212.255173,434.679294 218.117324,361.650705 218.117324,285.703411 C218.117324,211.341368 212.251994,137.841577 200.521334,65.2040379 L200,62 Z"
      id="2" fill="#837C67"></path>
    <path
      d="M18.7321741,0 L180.90957,53.7791285 C192.972247,130.119089 199.003586,206.803346 199.003586,283.831899 C199.003586,359.909677 193.12022,435.162256 181.353488,509.589638 L18.7321741,566 C6.3689392,503.46279 0.125505567,410.190439 0,286.182947 L0,282.415737 C0,156.52846 6.24405804,62.389881 18.7321741,0 Z"
      id="1" fill="#837C67"></path>
 
</svg>